HIERARCHY
ROOT Hips
{
 OFFSET 0.000000 0.000000 0.000000
 CHANNELS 6 Xposition Yposition Zposition Yrotation Xrotation Zrotation
 JOINT Chest
 {
  OFFSET 0.000000 9.585900 0.002600
  CHANNELS 3 Yrotation Xrotation Zrotation
  JOINT Chest2
  {
   OFFSET 0.000000 9.601200 -0.005300
   CHANNELS 3 Yrotation Xrotation Zrotation
   JOINT Chest3
   {
    OFFSET 0.000000 9.561800 0.000000
    CHANNELS 3 Yrotation Xrotation Zrotation
    JOINT Chest4
    {
     OFFSET 0.000000 9.552100 0.000000
     CHANNELS 3 Yrotation Xrotation Zrotation
     JOINT Neck
     {
      OFFSET 0.000000 14.453000 0.000000
      CHANNELS 3 Yrotation Xrotation Zrotation
      JOINT Head
      {
       OFFSET 0.000000 8.936500 -0.011300
       CHANNELS 3 Yrotation Xrotation Zrotation
       End Site
       {
        OFFSET 0.000000 17.073600 -0.006000
       }
      }
     }
     JOINT RightCollar
     {
      OFFSET -2.921100 9.558500 0.000000
      CHANNELS 3 Yrotation Xrotation Zrotation
      JOINT RightShoulder
      {
       OFFSET -13.519700 0.000000 0.000000
       CHANNELS 3 Yrotation Xrotation Zrotation
       JOINT RightElbow
       {
        OFFSET 0.000000 -29.696600 0.000000
        CHANNELS 3 Yrotation Xrotation Zrotation
        JOINT RightWrist
        {
         OFFSET 0.000000 -24.004700 0.000000
         CHANNELS 3 Yrotation Xrotation Zrotation
         End Site
         {
          OFFSET 0.000000 -17.728500 0.000000
         }
        }
       }
      }
     }
     JOINT LeftCollar
     {
      OFFSET 2.921100 9.558500 0.000000
      CHANNELS 3 Yrotation Xrotation Zrotation
      JOINT LeftShoulder
      {
       OFFSET 13.519700 0.000000 0.000000
       CHANNELS 3 Yrotation Xrotation Zrotation
       JOINT LeftElbow
       {
        OFFSET 0.000000 -29.696600 0.000000
        CHANNELS 3 Yrotation Xrotation Zrotation
        JOINT LeftWrist
        {
         OFFSET 0.000000 -24.004700 0.000000
         CHANNELS 3 Yrotation Xrotation Zrotation
         End Site
         {
          OFFSET 0.000000 -17.728500 0.000000
         }
        }
       }
      }
     }
    }
   }
  }
 }
 JOINT RightHip
 {
  OFFSET -7.771700 -0.012900 -0.001300
  CHANNELS 3 Yrotation Xrotation Zrotation
  JOINT RightKnee
  {
   OFFSET 0.000000 -40.869800 0.001200
   CHANNELS 3 Yrotation Xrotation Zrotation
   JOINT RightAnkle
   {
    OFFSET 0.000000 -39.717900 0.002100
    CHANNELS 3 Yrotation Xrotation Zrotation
    JOINT RightToe
    {
     OFFSET 0.000000 -4.965400 11.033500
     CHANNELS 3 Yrotation Xrotation Zrotation
     End Site
     {
      OFFSET 0.000000 -1.423100 5.872300
     }
    }
   }
  }
 }
 JOINT LeftHip
 {
  OFFSET 7.771700 -0.012900 -0.001300
  CHANNELS 3 Yrotation Xrotation Zrotation
  JOINT LeftKnee
  {
   OFFSET 0.000000 -40.869800 0.001200
   CHANNELS 3 Yrotation Xrotation Zrotation
   JOINT LeftAnkle
   {
    OFFSET 0.000000 -39.717900 0.002100
    CHANNELS 3 Yrotation Xrotation Zrotation
    JOINT LeftToe
    {
     OFFSET 0.000000 -4.965400 11.033500
     CHANNELS 3 Yrotation Xrotation Zrotation
     End Site
     {
      OFFSET 0.000000 -1.423100 5.872300
     }
    }
   }
  }
 }
}
MOTION
Frames: 5
Frame Time: 0.008333
0.000000 85.388000 0.000000 0.000000 -5.767877 0.000000 0.000000 11.653817 0.000000 0.000000 -5.885947 0.000000 0.000000 -0.000000 0.000000 0.000000 -0.000000 0.000000 0.000000 12.528835 0.000000 0.000000 0.711642 0.000000 0.000000 -0.000000 0.000000 0.000000 0.000000 -90.000000 0.000000 -2.309062 0.000000 0.000000 2.309062 0.000000 0.000000 -0.000000 0.000000 0.000000 -0.000000 90.000000 0.000000 -2.309062 0.000000 0.000000 2.309062 0.000000 0.000000 8.520406 0.000000 0.000000 1.905762 0.000000 -0.000000 -4.658285 0.000000 0.000000 -0.000000 0.000000 0.000000 8.520406 0.000000 0.000000 1.905762 0.000000 -0.000000 -4.658285 0.000000 0.000000 -0.000000 0.000000
-192.506962 57.577131 -60.961169 158.302678 -14.942167 1.600082 4.151671 6.964460 2.317360 0.210547 0.380896 0.071003 0.362783 0.618867 0.132879 4.004363 6.611498 1.651755 0.405259 20.764538 -0.766086 1.011859 2.805703 -1.571118 1.018253 10.116841 -0.368395 -10.435558 -8.790805 -4.007979 -106.987669 -80.425036 126.369766 -5.794735 0.419246 -26.033254 -4.459996 8.618523 -2.166330 18.985373 -2.498777 1.985280 74.480114 -75.082114 -106.926991 -1.149010 3.857358 7.856701 -10.654114 -57.974817 3.291103 -29.362076 71.868975 -30.407740 -3.907308 -5.136771 -1.992082 0.296037 0.627635 0.139375 1.166604 -58.408290 16.985415 37.969736 64.683939 30.642205 -16.537032 -8.070183 3.150227 -0.631205 -0.768825 -0.231795
-192.514106 57.579212 -60.974191 158.331337 -14.911684 1.574555 4.134267 6.983465 2.324619 0.207546 0.353926 0.075515 0.362170 0.616925 0.132464 4.000997 6.640818 1.631394 0.432321 20.737648 -0.767567 1.052867 2.818115 -1.603032 0.906294 10.137372 -0.397266 -10.624295 -8.274935 -3.770769 -106.456355 -80.560320 126.042011 -5.756630 0.486163 -26.088046 -4.319099 8.703835 -2.139541 18.969449 -2.312924 1.797333 74.163721 -75.147890 -106.642600 -1.174038 3.951899 7.965923 -10.663015 -57.982355 3.278109 -29.379600 71.865462 -30.400204 -3.878691 -5.184149 -1.983315 0.282165 0.663153 0.136889 1.142648 -58.450780 16.981963 37.984416 64.697029 30.666817 -16.523137 -8.070211 3.156381 -0.643388 -0.774201 -0.235365
-192.527999 57.580020 -60.984959 158.354136 -14.842879 1.569865 4.121325 6.966435 2.308549 0.206707 0.351853 0.075096 0.360820 0.613406 0.131802 3.995759 6.620136 1.630519 0.453193 20.741939 -0.785495 1.094012 2.835292 -1.636347 0.787656 10.180975 -0.437498 -10.819299 -7.786913 -3.553406 -105.858837 -80.688539 125.651612 -5.723837 0.541155 -26.155100 -4.218145 8.779833 -2.130304 18.985717 -2.118008 1.622365 73.791053 -75.203831 -106.300459 -1.192612 4.042526 8.088321 -10.686696 -58.045571 3.285129 -29.400028 71.871589 -30.420884 -3.879116 -5.206262 -1.977792 0.291745 0.678164 0.136827 1.154309 -58.533641 16.947742 37.994275 64.720313 30.677183 -16.539157 -8.061118 3.167719 -0.625096 -0.792314 -0.223714
-192.540839 57.580704 -60.995729 158.359785 -14.771465 1.554171 4.126971 6.984055 2.302834 0.202965 0.311248 0.080346 0.359723 0.656184 0.122671 3.991920 6.552706 1.635860 0.476686 20.750463 -0.804053 1.134805 2.857451 -1.672038 0.664285 10.221607 -0.479608 -11.012478 -7.329424 -3.352478 -105.165405 -80.807116 125.167610 -5.703634 0.588849 -26.231222 -4.142055 8.837818 -2.122337 19.016966 -1.922940 1.460092 73.393534 -75.245060 -105.930839 -1.202930 4.128565 8.225162 -10.717451 -58.108125 3.321677 -29.412723 71.873587 -30.433627 -3.876599 -5.216358 -1.976601 0.287091 0.683143 0.141355 1.152232 -58.618035 16.941621 38.023843 64.743397 30.709998 -16.540731 -8.071934 3.184691 -0.660240 -0.792083 -0.238304
